STARTFONT 2.1
COMMENT $XConsortium: luRS08.bdf,v 1.7 94/04/02 16:23:42 gildea Exp $
COMMENT  (c) Copyright Bigelow & Holmes 1986, 1985. Lucida is a registered
COMMENT  trademark of Bigelow & Holmes. See LEGAL NOTICE file for terms 
COMMENT  of the license. 
COMMENT  
COMMENT  Translation to ISO8859-2 by Cub Soft;  Petr.Kolar@vslib.cz
COMMENT  
FONT -B&H-Lucida-Medium-R-Normal-Sans-11-80-100-100-P-63-ISO8859-2
SIZE 8 100 100
FONTBOUNDINGBOX 17 12 -6 -2
STARTPROPERTIES 20
COMMENT Begin LogicalFontDescription
FONTNAME_REGISTRY ""
FOUNDRY "B&H"
FAMILY_NAME "Lucida"
WEIGHT_NAME "Medium"
SLANT "R"
SETWIDTH_NAME "Normal"
ADD_STYLE_NAME "Sans"
PIXEL_SIZE 11
POINT_SIZE 80
RESOLUTION_X 100
RESOLUTION_Y 100
SPACING "P"
AVERAGE_WIDTH 63
CHARSET_REGISTRY "ISO8859"
CHARSET_ENCODING "2"
COMMENT END LogicalFontDescription
FONT_ASCENT 10
FONT_DESCENT 3
DEFAULT_CHAR 0
COPYRIGHT "Copyright Bigelow & Holmes 1986, 1985., Copyright 1996 Cub Soft"
FACE_NAME "Lucida Sans"
ENDPROPERTIES
CHARS 191
STARTCHAR space
ENCODING 32
SWIDTH 316 0
DWIDTH 3 0
BBX 1 1 0 0
BITMAP
00
ENDCHAR
STARTCHAR exclam
ENCODING 33
SWIDTH 205 0
DWIDTH 3 0
BBX 1 8 1 0
BITMAP
80
80
80
80
80
80
00
80
ENDCHAR
STARTCHAR quotedbl
ENCODING 34
SWIDTH 373 0
DWIDTH 4 0
BBX 3 3 1 5
BITMAP
a0
a0
a0
ENDCHAR
STARTCHAR numbersign
ENCODING 35
SWIDTH 633 0
DWIDTH 7 0
BBX 7 8 0 0
BITMAP
14
34
7e
28
28
fc
58
50
ENDCHAR
STARTCHAR dollar
ENCODING 36
SWIDTH 633 0
DWIDTH 7 0
BBX 5 10 1 -1
BITMAP
20
78
a0
a0
60
30
28
28
f0
20
ENDCHAR
STARTCHAR percent
ENCODING 37
SWIDTH 669 0
DWIDTH 7 0
BBX 6 8 1 0
BITMAP
44
a8
b8
50
28
74
54
88
ENDCHAR
STARTCHAR ampersand
ENCODING 38
SWIDTH 697 0
DWIDTH 8 0
BBX 5 8 1 0
BITMAP
70
50
50
60
a8
b8
90
68
ENDCHAR
STARTCHAR apostrophe
ENCODING 39
SWIDTH 229 0
DWIDTH 3 0
BBX 2 3 0 5
BITMAP
c0
40
c0
ENDCHAR
STARTCHAR parenleft
ENCODING 40
SWIDTH 325 0
DWIDTH 4 0
BBX 2 10 1 -2
BITMAP
40
40
80
80
80
80
80
80
40
40
ENDCHAR
STARTCHAR parenright
ENCODING 41
SWIDTH 325 0
DWIDTH 4 0
BBX 2 10 1 -2
BITMAP
80
80
40
40
40
40
40
40
80
80
ENDCHAR
STARTCHAR asterisk
ENCODING 42
SWIDTH 482 0
DWIDTH 5 0
BBX 4 4 1 4
BITMAP
40
f0
60
60
ENDCHAR
STARTCHAR plus
ENCODING 43
SWIDTH 633 0
DWIDTH 7 0
BBX 7 7 0 0
BITMAP
10
10
10
fe
10
10
10
ENDCHAR
STARTCHAR comma
ENCODING 44
SWIDTH 316 0
DWIDTH 3 0
BBX 2 4 1 -2
BITMAP
c0
c0
40
80
ENDCHAR
STARTCHAR minus
ENCODING 45
SWIDTH 633 0
DWIDTH 7 0
BBX 6 1 0 3
BITMAP
fc
ENDCHAR
STARTCHAR period
ENCODING 46
SWIDTH 316 0
DWIDTH 3 0
BBX 1 1 1 0
BITMAP
80
ENDCHAR
STARTCHAR slash
ENCODING 47
SWIDTH 494 0
DWIDTH 5 0
BBX 5 10 0 -2
BITMAP
08
10
10
10
20
20
40
40
40
80
ENDCHAR
STARTCHAR zero
ENCODING 48
SWIDTH 633 0
DWIDTH 7 0
BBX 6 8 0 0
BITMAP
78
48
84
84
84
84
48
78
ENDCHAR
STARTCHAR one
ENCODING 49
SWIDTH 633 0
DWIDTH 7 0
BBX 2 8 2 0
BITMAP
c0
40
40
40
40
40
40
40
ENDCHAR
STARTCHAR two
ENCODING 50
SWIDTH 633 0
DWIDTH 7 0
BBX 5 8 1 0
BITMAP
70
88
08
18
30
60
c0
f8
ENDCHAR
STARTCHAR three
ENCODING 51
SWIDTH 633 0
DWIDTH 7 0
BBX 5 8 1 0
BITMAP
f0
08
08
70
08
08
08
f0
ENDCHAR
STARTCHAR four
ENCODING 52
SWIDTH 633 0
DWIDTH 7 0
BBX 6 8 0 0
BITMAP
18
18
28
48
c8
fc
08
08
ENDCHAR
STARTCHAR five
ENCODING 53
SWIDTH 633 0
DWIDTH 7 0
BBX 4 8 1 0
BITMAP
f0
80
80
e0
10
10
10
e0
ENDCHAR
STARTCHAR six
ENCODING 54
SWIDTH 633 0
DWIDTH 7 0
BBX 5 8 1 0
BITMAP
78
40
80
f0
88
88
88
70
ENDCHAR
STARTCHAR seven
ENCODING 55
SWIDTH 633 0
DWIDTH 7 0
BBX 5 8 1 0
BITMAP
f8
08
10
30
20
40
c0
80
ENDCHAR
STARTCHAR eight
ENCODING 56
SWIDTH 633 0
DWIDTH 7 0
BBX 5 8 1 0
BITMAP
70
88
88
70
d8
88
88
70
ENDCHAR
STARTCHAR nine
ENCODING 57
SWIDTH 633 0
DWIDTH 7 0
BBX 5 8 1 0
BITMAP
70
98
88
88
78
08
10
f0
ENDCHAR
STARTCHAR colon
ENCODING 58
SWIDTH 316 0
DWIDTH 3 0
BBX 1 6 1 0
BITMAP
80
00
00
00
00
80
ENDCHAR
STARTCHAR semicolon
ENCODING 59
SWIDTH 316 0
DWIDTH 3 0
BBX 1 8 1 -2
BITMAP
80
00
00
00
00
80
80
80
ENDCHAR
STARTCHAR less
ENCODING 60
SWIDTH 633 0
DWIDTH 7 0
BBX 6 7 0 0
BITMAP
04
18
30
c0
30
18
04
ENDCHAR
STARTCHAR equal
ENCODING 61
SWIDTH 633 0
DWIDTH 7 0
BBX 6 3 0 2
BITMAP
fc
00
fc
ENDCHAR
STARTCHAR greater
ENCODING 62
SWIDTH 633 0
DWIDTH 7 0
BBX 6 7 0 0
BITMAP
80
60
30
0c
30
60
80
ENDCHAR
STARTCHAR question
ENCODING 63
SWIDTH 422 0
DWIDTH 5 0
BBX 4 8 0 0
BITMAP
e0
10
10
20
40
40
00
40
ENDCHAR
STARTCHAR at
ENCODING 64
SWIDTH 858 0
DWIDTH 9 0
BBX 8 8 2 0
BITMAP
1e
63
5d
a9
a9
b6
40
3c
ENDCHAR
STARTCHAR A
ENCODING 65
SWIDTH 690 0
DWIDTH 8 0
BBX 7 8 0 0
BITMAP
10
38
28
28
44
7c
44
82
ENDCHAR
STARTCHAR B
ENCODING 66
SWIDTH 575 0
DWIDTH 6 0
BBX 5 8 1 0
BITMAP
f0
88
88
f0
90
88
88
f0
ENDCHAR
STARTCHAR C
ENCODING 67
SWIDTH 692 0
DWIDTH 8 0
BBX 6 8 1 0
BITMAP
3c
44
80
80
80
80
44
3c
ENDCHAR
STARTCHAR D
ENCODING 68
SWIDTH 749 0
DWIDTH 8 0
BBX 7 8 1 0
BITMAP
f8
84
82
82
82
82
84
f8
ENDCHAR
STARTCHAR E
ENCODING 69
SWIDTH 542 0
DWIDTH 6 0
BBX 5 8 1 0
BITMAP
f8
80
80
f0
80
80
80
f8
ENDCHAR
STARTCHAR F
ENCODING 70
SWIDTH 536 0
DWIDTH 6 0
BBX 4 8 1 0
BITMAP
f0
80
80
80
f0
80
80
80
ENDCHAR
STARTCHAR G
ENCODING 71
SWIDTH 723 0
DWIDTH 8 0
BBX 6 8 1 0
BITMAP
3c
44
80
80
84
84
44
3c
ENDCHAR
STARTCHAR H
ENCODING 72
SWIDTH 735 0
DWIDTH 8 0
BBX 6 8 1 0
BITMAP
84
84
84
fc
84
84
84
84
ENDCHAR
STARTCHAR I
ENCODING 73
SWIDTH 288 0
DWIDTH 3 0
BBX 1 8 1 0
BITMAP
80
80
80
80
80
80
80
80
ENDCHAR
STARTCHAR J
ENCODING 74
SWIDTH 311 0
DWIDTH 3 0
BBX 3 10 0 -2
BITMAP
20
20
20
20
20
20
20
20
20
c0
ENDCHAR
STARTCHAR K
ENCODING 75
SWIDTH 653 0
DWIDTH 7 0
BBX 6 8 1 0
BITMAP
8c
90
a0
e0
e0
b0
98
8c
ENDCHAR
STARTCHAR L
ENCODING 76
SWIDTH 533 0
DWIDTH 6 0
BBX 5 8 1 0
BITMAP
80
80
80
80
80
80
80
f8
ENDCHAR
STARTCHAR M
ENCODING 77
SWIDTH 861 0
DWIDTH 9 0
BBX 7 8 1 0
BITMAP
c6
c6
c6
aa
aa
aa
92
82
ENDCHAR
STARTCHAR N
ENCODING 78
SWIDTH 741 0
DWIDTH 8 0
BBX 6 8 1 0
BITMAP
84
c4
e4
a4
94
9c
8c
84
ENDCHAR
STARTCHAR O
ENCODING 79
SWIDTH 777 0
DWIDTH 9 0
BBX 7 8 1 0
BITMAP
38
44
82
82
82
82
44
38
ENDCHAR
STARTCHAR P
ENCODING 80
SWIDTH 553 0
DWIDTH 6 0
BBX 5 8 1 0
BITMAP
f0
88
88
98
f0
80
80
80
ENDCHAR
STARTCHAR Q
ENCODING 81
SWIDTH 777 0
DWIDTH 9 0
BBX 8 10 1 -2
BITMAP
38
44
82
82
82
82
46
3c
06
03
ENDCHAR
STARTCHAR R
ENCODING 82
SWIDTH 633 0
DWIDTH 7 0
BBX 6 8 1 0
BITMAP
f0
88
88
90
e0
90
88
8c
ENDCHAR
STARTCHAR S
ENCODING 83
SWIDTH 539 0
DWIDTH 6 0
BBX 5 8 0 0
BITMAP
70
80
80
60
10
08
88
f0
ENDCHAR
STARTCHAR T
ENCODING 84
SWIDTH 633 0
DWIDTH 7 0
BBX 7 8 0 0
BITMAP
fe
10
10
10
10
10
10
10
ENDCHAR
STARTCHAR U
ENCODING 85
SWIDTH 693 0
DWIDTH 8 0
BBX 6 8 1 0
BITMAP
84
84
84
84
84
84
84
78
ENDCHAR
STARTCHAR V
ENCODING 86
SWIDTH 654 0
DWIDTH 7 0
BBX 7 8 0 0
BITMAP
82
46
44
44
28
28
38
10
ENDCHAR
STARTCHAR W
ENCODING 87
SWIDTH 855 0
DWIDTH 9 0
BBX 9 8 0 0
BITMAP
8880
8880
5500
5500
5500
5500
3600
2200
ENDCHAR
STARTCHAR X
ENCODING 88
SWIDTH 626 0
DWIDTH 7 0
BBX 7 8 0 0
BITMAP
c6
44
28
18
38
28
44
c6
ENDCHAR
STARTCHAR Y
ENCODING 89
SWIDTH 623 0
DWIDTH 7 0
BBX 7 8 0 0
BITMAP
c6
44
28
28
10
10
10
10
ENDCHAR
STARTCHAR Z
ENCODING 90
SWIDTH 605 0
DWIDTH 7 0
BBX 6 8 0 0
BITMAP
fc
08
18
10
20
40
40
fc
ENDCHAR
STARTCHAR bracketleft
ENCODING 91
SWIDTH 325 0
DWIDTH 4 0
BBX 2 10 1 -2
BITMAP
c0
80
80
80
80
80
80
80
80
c0
ENDCHAR
STARTCHAR backslash
ENCODING 92
SWIDTH 494 0
DWIDTH 5 0
BBX 5 10 0 -2
BITMAP
80
40
40
40
20
20
10
10
10
08
ENDCHAR
STARTCHAR bracketright
ENCODING 93
SWIDTH 325 0
DWIDTH 4 0
BBX 2 10 0 -2
BITMAP
c0
40
40
40
40
40
40
40
40
c0
ENDCHAR
STARTCHAR asciicircum
ENCODING 94
SWIDTH 633 0
DWIDTH 7 0
BBX 6 7 0 1
BITMAP
10
30
30
48
48
48
84
ENDCHAR
STARTCHAR underscore
ENCODING 95
SWIDTH 500 0
DWIDTH 6 0
BBX 5 1 0 -1
BITMAP
f8
ENDCHAR
STARTCHAR grave
ENCODING 96
SWIDTH 614 0
DWIDTH 7 0
BBX 2 1 2 7
BITMAP
c0
ENDCHAR
STARTCHAR a
ENCODING 97
SWIDTH 552 0
DWIDTH 6 0
BBX 5 6 1 0
BITMAP
70
90
70
90
90
68
ENDCHAR
STARTCHAR b
ENCODING 98
SWIDTH 630 0
DWIDTH 7 0
BBX 5 8 1 0
BITMAP
80
80
f0
88
88
88
98
f0
ENDCHAR
STARTCHAR c
ENCODING 99
SWIDTH 518 0
DWIDTH 6 0
BBX 4 6 1 0
BITMAP
70
c0
80
80
c0
70
ENDCHAR
STARTCHAR d
ENCODING 100
SWIDTH 630 0
DWIDTH 7 0
BBX 5 8 1 0
BITMAP
08
08
78
c8
88
88
88
78
ENDCHAR
STARTCHAR e
ENCODING 101
SWIDTH 557 0
DWIDTH 6 0
BBX 5 6 0 0
BITMAP
70
88
f8
80
c0
78
ENDCHAR
STARTCHAR f
ENCODING 102
SWIDTH 367 0
DWIDTH 4 0
BBX 4 9 0 0
BITMAP
30
40
40
e0
40
40
40
40
40
ENDCHAR
STARTCHAR g
ENCODING 103
SWIDTH 623 0
DWIDTH 7 0
BBX 5 8 1 -2
BITMAP
78
c8
88
88
88
78
08
f0
ENDCHAR
STARTCHAR h
ENCODING 104
SWIDTH 620 0
DWIDTH 7 0
BBX 5 8 1 0
BITMAP
80
80
b0
c8
88
88
88
88
ENDCHAR
STARTCHAR i
ENCODING 105
SWIDTH 289 0
DWIDTH 3 0
BBX 1 8 1 0
BITMAP
80
00
80
80
80
80
80
80
ENDCHAR
STARTCHAR j
ENCODING 106
SWIDTH 304 0
DWIDTH 3 0
BBX 3 10 0 -2
BITMAP
20
00
20
20
20
20
20
20
20
c0
ENDCHAR
STARTCHAR k
ENCODING 107
SWIDTH 585 0
DWIDTH 6 0
BBX 5 8 1 0
BITMAP
80
80
98
a0
e0
e0
b0
98
ENDCHAR
STARTCHAR l
ENCODING 108
SWIDTH 289 0
DWIDTH 3 0
BBX 1 8 1 0
BITMAP
80
80
80
80
80
80
80
80
ENDCHAR
STARTCHAR m
ENCODING 109
SWIDTH 934 0
DWIDTH 10 0
BBX 9 6 1 0
BITMAP
bb00
cc80
8880
8880
8880
8880
ENDCHAR
STARTCHAR n
ENCODING 110
SWIDTH 620 0
DWIDTH 7 0
BBX 5 6 1 0
BITMAP
b0
c8
88
88
88
88
ENDCHAR
STARTCHAR o
ENCODING 111
SWIDTH 614 0
DWIDTH 7 0
BBX 6 6 0 0
BITMAP
78
cc
84
84
cc
78
ENDCHAR
STARTCHAR p
ENCODING 112
SWIDTH 630 0
DWIDTH 7 0
BBX 5 8 1 -2
BITMAP
f0
88
88
88
98
f0
80
80
ENDCHAR
STARTCHAR q
ENCODING 113
SWIDTH 630 0
DWIDTH 7 0
BBX 5 8 1 -2
BITMAP
78
c8
88
88
88
78
08
08
ENDCHAR
STARTCHAR r
ENCODING 114
SWIDTH 409 0
DWIDTH 5 0
BBX 3 6 1 0
BITMAP
a0
c0
80
80
80
80
ENDCHAR
STARTCHAR s
ENCODING 115
SWIDTH 510 0
DWIDTH 6 0
BBX 4 6 1 0
BITMAP
70
80
c0
30
90
e0
ENDCHAR
STARTCHAR t
ENCODING 116
SWIDTH 374 0
DWIDTH 4 0
BBX 4 7 0 0
BITMAP
40
f0
40
40
40
40
30
ENDCHAR
STARTCHAR u
ENCODING 117
SWIDTH 620 0
DWIDTH 7 0
BBX 5 6 1 0
BITMAP
88
88
88
88
98
68
ENDCHAR
STARTCHAR v
ENCODING 118
SWIDTH 572 0
DWIDTH 6 0
BBX 6 6 0 0
BITMAP
84
48
48
78
30
30
ENDCHAR
STARTCHAR w
ENCODING 119
SWIDTH 840 0
DWIDTH 8 0
BBX 8 6 0 0
BITMAP
99
99
5a
6a
66
64
ENDCHAR
STARTCHAR x
ENCODING 120
SWIDTH 613 0
DWIDTH 7 0
BBX 6 6 0 0
BITMAP
cc
68
30
30
48
cc
ENDCHAR
STARTCHAR y
ENCODING 121
SWIDTH 568 0
DWIDTH 6 0
BBX 6 8 0 -2
BITMAP
84
48
48
38
30
30
20
60
ENDCHAR
STARTCHAR z
ENCODING 122
SWIDTH 573 0
DWIDTH 6 0
BBX 5 6 1 0
BITMAP
f8
10
30
60
40
f8
ENDCHAR
STARTCHAR braceleft
ENCODING 123
SWIDTH 325 0
DWIDTH 4 0
BBX 3 10 0 -2
BITMAP
20
40
40
40
40
c0
40
40
40
20
ENDCHAR
STARTCHAR bar
ENCODING 124
SWIDTH 265 0
DWIDTH 3 0
BBX 1 10 1 -2
BITMAP
80
80
80
80
80
80
80
80
80
80
ENDCHAR
STARTCHAR braceright
ENCODING 125
SWIDTH 325 0
DWIDTH 4 0
BBX 3 10 1 -2
BITMAP
80
40
40
40
60
40
40
40
40
80
ENDCHAR
STARTCHAR asciitilde
ENCODING 126
SWIDTH 633 0
DWIDTH 7 0
BBX 6 3 0 2
BITMAP
64
b4
98
ENDCHAR
STARTCHAR nobreakspace
ENCODING 160
SWIDTH 316 0
DWIDTH 3 0
BBX 1 1 0 0
BITMAP
00
ENDCHAR
STARTCHAR Aogonek
ENCODING 161
SWIDTH 690 0
DWIDTH 8 0
BBX 7 9 0 -1
BITMAP
10
38
28
28
44
7c
44
82
18
ENDCHAR
STARTCHAR breve
ENCODING 162
SWIDTH 614 0
DWIDTH 7 0
BBX 4 1 1 7
BITMAP
f0
ENDCHAR
STARTCHAR Lstroke
ENCODING 163
SWIDTH 533 0
DWIDTH 6 0
BBX 6 8 0 0
BITMAP
40
40
60
60
c0
40
40
7c
ENDCHAR
STARTCHAR currency
ENCODING 164
SWIDTH 633 0
DWIDTH 7 0
BBX 7 8 0 0
BITMAP
82
7c
6c
44
44
6c
7c
82
ENDCHAR
STARTCHAR Lcaron
ENCODING 165
SWIDTH 533 0
DWIDTH 6 0
BBX 5 9 1 0
BITMAP
30
90
b0
80
80
80
80
80
f8
ENDCHAR
STARTCHAR Sacute
ENCODING 166
SWIDTH 539 0
DWIDTH 6 0
BBX 5 10 0 0
BITMAP
60
00
70
80
80
60
10
08
88
f0
ENDCHAR
STARTCHAR section
ENCODING 167
SWIDTH 633 0
DWIDTH 7 0
BBX 5 10 1 -2
BITMAP
78
80
80
70
98
c8
70
08
88
f0
ENDCHAR
STARTCHAR diaeresis
ENCODING 168
SWIDTH 614 0
DWIDTH 7 0
BBX 3 1 2 7
BITMAP
a0
ENDCHAR
STARTCHAR Scaron
ENCODING 169
SWIDTH 539 0
DWIDTH 6 0
BBX 5 10 0 0
BITMAP
f0
00
70
80
80
60
10
08
88
f0
ENDCHAR
STARTCHAR Scedilla
ENCODING 170
SWIDTH 539 0
DWIDTH 6 0
BBX 5 11 0 -3
BITMAP
70
80
80
60
10
08
88
f0
20
10
30
ENDCHAR
STARTCHAR Tcaron
ENCODING 171
SWIDTH 633 0
DWIDTH 7 0
BBX 7 10 0 0
BITMAP
3c
00
fe
10
10
10
10
10
10
10
ENDCHAR
STARTCHAR Zacute
ENCODING 172
SWIDTH 605 0
DWIDTH 7 0
BBX 6 10 0 0
BITMAP
30
00
fc
08
18
10
20
40
40
fc
ENDCHAR
STARTCHAR hyphen
ENCODING 173
SWIDTH 325 0
DWIDTH 4 0
BBX 2 1 1 3
BITMAP
c0
ENDCHAR
STARTCHAR Zcaron
ENCODING 174
SWIDTH 605 0
DWIDTH 7 0
BBX 6 10 0 0
BITMAP
78
00
fc
08
18
10
20
40
40
fc
ENDCHAR
STARTCHAR Zabovedot
ENCODING 175
SWIDTH 605 0
DWIDTH 7 0
BBX 6 10 0 0
BITMAP
20
00
fc
08
18
10
20
40
40
fc
ENDCHAR
STARTCHAR degree
ENCODING 176
SWIDTH 277 0
DWIDTH 3 0
BBX 3 2 2 6
BITMAP
e0
60
ENDCHAR
STARTCHAR aogonek
ENCODING 177
SWIDTH 552 0
DWIDTH 6 0
BBX 5 7 1 -1
BITMAP
70
90
70
90
90
68
30
ENDCHAR
STARTCHAR ogonek
ENCODING 178
SWIDTH 614 0
DWIDTH 7 0
BBX 2 1 3 -2
BITMAP
c0
ENDCHAR
STARTCHAR lstroke
ENCODING 179
SWIDTH 289 0
DWIDTH 3 0
BBX 3 8 0 0
BITMAP
40
40
60
40
c0
40
40
40
ENDCHAR
STARTCHAR acute
ENCODING 180
SWIDTH 614 0
DWIDTH 7 0
BBX 2 1 3 7
BITMAP
c0
ENDCHAR
STARTCHAR lcaron
ENCODING 181
SWIDTH 540 0
DWIDTH 6 0
BBX 4 9 1 0
BITMAP
30
90
b0
80
80
80
80
80
80
ENDCHAR
STARTCHAR sacute
ENCODING 182
SWIDTH 510 0
DWIDTH 6 0
BBX 4 8 1 0
BITMAP
60
00
70
80
c0
30
90
e0
ENDCHAR
STARTCHAR caron
ENCODING 183
SWIDTH 614 0
DWIDTH 7 0
BBX 4 1 1 7
BITMAP
f0
ENDCHAR
STARTCHAR cedilla
ENCODING 184
SWIDTH 614 0
DWIDTH 7 0
BBX 2 3 3 -2
BITMAP
80
40
c0
ENDCHAR
STARTCHAR scaron
ENCODING 185
SWIDTH 510 0
DWIDTH 6 0
BBX 4 8 1 0
BITMAP
f0
00
70
80
c0
30
90
e0
ENDCHAR
STARTCHAR scedilla
ENCODING 186
SWIDTH 510 0
DWIDTH 6 0
BBX 4 9 1 -3
BITMAP
70
80
c0
30
90
e0
40
20
60
ENDCHAR
STARTCHAR tcaron
ENCODING 187
SWIDTH 374 0
DWIDTH 4 0
BBX 4 10 0 0
BITMAP
60
20
60
40
f0
40
40
40
40
30
ENDCHAR
STARTCHAR zacute
ENCODING 188
SWIDTH 573 0
DWIDTH 6 0
BBX 5 8 1 0
BITMAP
30
00
f8
10
30
60
40
f8
ENDCHAR
STARTCHAR doubleacute
ENCODING 189
SWIDTH 614 0
DWIDTH 7 0
BBX 3 1 2 7
BITMAP
e0
ENDCHAR
STARTCHAR zcaron
ENCODING 190
SWIDTH 573 0
DWIDTH 6 0
BBX 5 8 1 0
BITMAP
78
00
f8
10
30
60
40
f8
ENDCHAR
STARTCHAR zabovedot
ENCODING 191
SWIDTH 573 0
DWIDTH 6 0
BBX 5 8 1 0
BITMAP
20
00
f8
10
30
60
40
f8
ENDCHAR
STARTCHAR Racute
ENCODING 192
SWIDTH 633 0
DWIDTH 7 0
BBX 6 10 1 0
BITMAP
30
00
f0
88
88
90
e0
90
88
8c
ENDCHAR
STARTCHAR Aacute
ENCODING 193
SWIDTH 690 0
DWIDTH 8 0
BBX 7 9 0 0
BITMAP
18
10
38
28
28
44
7c
44
82
ENDCHAR
STARTCHAR Acircumflex
ENCODING 194
SWIDTH 690 0
DWIDTH 8 0
BBX 7 9 0 0
BITMAP
3c
10
38
28
28
44
7c
44
82
ENDCHAR
STARTCHAR Abreve
ENCODING 195
SWIDTH 690 0
DWIDTH 8 0
BBX 7 10 0 0
BITMAP
3c
00
10
38
28
28
44
7c
44
82
ENDCHAR
STARTCHAR Adiaeresis
ENCODING 196
SWIDTH 690 0
DWIDTH 8 0
BBX 7 9 0 0
BITMAP
28
10
38
28
28
44
7c
44
82
ENDCHAR
STARTCHAR Lacute
ENCODING 197
SWIDTH 533 0
DWIDTH 6 0
BBX 5 10 1 0
BITMAP
c0
00
80
80
80
80
80
80
80
f8
ENDCHAR
STARTCHAR Cacute
ENCODING 198
SWIDTH 692 0
DWIDTH 8 0
BBX 6 10 1 0
BITMAP
18
00
3c
44
80
80
80
80
44
3c
ENDCHAR
STARTCHAR Ccedilla
ENCODING 199
SWIDTH 692 0
DWIDTH 8 0
BBX 6 10 1 -2
BITMAP
3c
44
80
80
80
80
44
3c
10
30
ENDCHAR
STARTCHAR Ccaron
ENCODING 200
SWIDTH 692 0
DWIDTH 8 0
BBX 6 10 1 0
BITMAP
3c
00
3c
44
80
80
80
80
44
3c
ENDCHAR
STARTCHAR Eacute
ENCODING 201
SWIDTH 542 0
DWIDTH 6 0
BBX 5 9 1 0
BITMAP
40
f8
80
80
f0
80
80
80
f8
ENDCHAR
STARTCHAR Eogonek
ENCODING 202
SWIDTH 542 0
DWIDTH 6 0
BBX 5 9 1 -1
BITMAP
f8
80
80
f0
80
80
80
f8
30
ENDCHAR
STARTCHAR Ediaeresis
ENCODING 203
SWIDTH 542 0
DWIDTH 6 0
BBX 5 9 1 0
BITMAP
50
f8
80
80
f0
80
80
80
f8
ENDCHAR
STARTCHAR Ecaron
ENCODING 204
SWIDTH 542 0
DWIDTH 6 0
BBX 5 10 1 0
BITMAP
78
00
f8
80
80
f0
80
80
80
f8
ENDCHAR
STARTCHAR Iacute
ENCODING 205
SWIDTH 288 0
DWIDTH 3 0
BBX 2 9 1 0
BITMAP
c0
80
80
80
80
80
80
80
80
ENDCHAR
STARTCHAR Icircumflex
ENCODING 206
SWIDTH 288 0
DWIDTH 3 0
BBX 4 9 2 0
BITMAP
f0
40
40
40
40
40
40
40
40
ENDCHAR
STARTCHAR Dcaron
ENCODING 207
SWIDTH 749 0
DWIDTH 8 0
BBX 7 10 1 0
BITMAP
78
00
f8
84
82
82
82
82
84
f8
ENDCHAR
STARTCHAR Dstroke
ENCODING 208
SWIDTH 749 0
DWIDTH 8 0
BBX 8 8 0 0
BITMAP
7c
42
41
f1
41
41
42
7c
ENDCHAR
STARTCHAR Nacute
ENCODING 209
SWIDTH 741 0
DWIDTH 8 0
BBX 6 10 1 0
BITMAP
30
00
84
c4
e4
a4
94
9c
8c
84
ENDCHAR
STARTCHAR Ncaron
ENCODING 210
SWIDTH 741 0
DWIDTH 8 0
BBX 6 10 1 0
BITMAP
78
00
84
c4
e4
a4
94
9c
8c
84
ENDCHAR
STARTCHAR Oacute
ENCODING 211
SWIDTH 777 0
DWIDTH 9 0
BBX 7 9 1 0
BITMAP
10
38
44
82
82
82
82
44
38
ENDCHAR
STARTCHAR Ocircumflex
ENCODING 212
SWIDTH 777 0
DWIDTH 9 0
BBX 7 9 1 0
BITMAP
1c
38
44
82
82
82
82
44
38
ENDCHAR
STARTCHAR Odoubleacute
ENCODING 213
SWIDTH 777 0
DWIDTH 9 0
BBX 7 10 1 0
BITMAP
38
00
38
44
82
82
82
82
44
38
ENDCHAR
STARTCHAR Odiaeresis
ENCODING 214
SWIDTH 777 0
DWIDTH 9 0
BBX 7 9 1 0
BITMAP
28
38
44
82
82
82
82
44
38
ENDCHAR
STARTCHAR multiply
ENCODING 215
SWIDTH 633 0
DWIDTH 7 0
BBX 6 7 0 0
BITMAP
84
48
78
30
78
48
84
ENDCHAR
STARTCHAR Rcaron
ENCODING 216
SWIDTH 633 0
DWIDTH 7 0
BBX 6 10 1 0
BITMAP
78
00
f0
88
88
90
e0
90
88
8c
ENDCHAR
STARTCHAR Uring
ENCODING 217
SWIDTH 693 0
DWIDTH 8 0
BBX 6 12 1 0
BITMAP
30
48
30
00
84
84
84
84
84
84
84
78
ENDCHAR
STARTCHAR Uacute
ENCODING 218
SWIDTH 693 0
DWIDTH 8 0
BBX 6 9 1 0
BITMAP
30
84
84
84
84
84
84
84
78
ENDCHAR
STARTCHAR Udoubleacute
ENCODING 219
SWIDTH 693 0
DWIDTH 8 0
BBX 6 10 1 0
BITMAP
70
00
84
84
84
84
84
84
84
78
ENDCHAR
STARTCHAR Udiaeresis
ENCODING 220
SWIDTH 693 0
DWIDTH 8 0
BBX 6 9 1 0
BITMAP
50
84
84
84
84
84
84
84
78
ENDCHAR
STARTCHAR Yacute
ENCODING 221
SWIDTH 623 0
DWIDTH 7 0
BBX 7 9 0 0
BITMAP
18
c6
44
28
28
10
10
10
10
ENDCHAR
STARTCHAR Tcedilla
ENCODING 222
SWIDTH 633 0
DWIDTH 7 0
BBX 7 11 0 -3
BITMAP
fe
10
10
10
10
10
10
10
10
08
18
ENDCHAR
STARTCHAR ssharp
ENCODING 223
SWIDTH 598 0
DWIDTH 7 0
BBX 5 9 1 0
BITMAP
e0
90
90
a0
a0
90
88
88
b0
ENDCHAR
STARTCHAR racute
ENCODING 224
SWIDTH 409 0
DWIDTH 5 0
BBX 3 8 1 0
BITMAP
60
00
a0
c0
80
80
80
80
ENDCHAR
STARTCHAR aacute
ENCODING 225
SWIDTH 552 0
DWIDTH 6 0
BBX 5 7 1 0
BITMAP
20
70
90
70
90
90
68
ENDCHAR
STARTCHAR acircumflex
ENCODING 226
SWIDTH 552 0
DWIDTH 6 0
BBX 5 7 1 0
BITMAP
e0
70
90
70
90
90
68
ENDCHAR
STARTCHAR abreve
ENCODING 227
SWIDTH 552 0
DWIDTH 6 0
BBX 5 8 1 0
BITMAP
f0
00
70
90
70
90
90
68
ENDCHAR
STARTCHAR adiaeresis
ENCODING 228
SWIDTH 552 0
DWIDTH 6 0
BBX 5 7 1 0
BITMAP
50
70
90
70
90
90
68
ENDCHAR
STARTCHAR lacute
ENCODING 229
SWIDTH 289 0
DWIDTH 3 0
BBX 2 10 1 0
BITMAP
c0
00
80
80
80
80
80
80
80
80
ENDCHAR
STARTCHAR cacute
ENCODING 230
SWIDTH 518 0
DWIDTH 6 0
BBX 4 8 1 0
BITMAP
60
00
70
c0
80
80
c0
70
ENDCHAR
STARTCHAR ccedilla
ENCODING 231
SWIDTH 518 0
DWIDTH 6 0
BBX 4 8 1 -2
BITMAP
70
c0
80
80
c0
70
20
60
ENDCHAR
STARTCHAR ccaron
ENCODING 232
SWIDTH 518 0
DWIDTH 6 0
BBX 4 8 1 0
BITMAP
f0
00
70
c0
80
80
c0
70
ENDCHAR
STARTCHAR eacute
ENCODING 233
SWIDTH 557 0
DWIDTH 6 0
BBX 5 7 0 0
BITMAP
20
70
88
f8
80
c0
78
ENDCHAR
STARTCHAR eogonek
ENCODING 234
SWIDTH 557 0
DWIDTH 6 0
BBX 5 7 0 -1
BITMAP
70
88
f8
80
c0
78
30
ENDCHAR
STARTCHAR ediaeresis
ENCODING 235
SWIDTH 557 0
DWIDTH 6 0
BBX 5 7 0 0
BITMAP
50
70
88
f8
80
c0
78
ENDCHAR
STARTCHAR ecaron
ENCODING 236
SWIDTH 557 0
DWIDTH 6 0
BBX 5 8 0 0
BITMAP
78
00
70
88
f8
80
c0
78
ENDCHAR
STARTCHAR iacute
ENCODING 237
SWIDTH 289 0
DWIDTH 3 0
BBX 2 7 1 0
BITMAP
c0
80
80
80
80
80
80
ENDCHAR
STARTCHAR icircumflex
ENCODING 238
SWIDTH 289 0
DWIDTH 3 0
BBX 4 7 2 0
BITMAP
f0
40
40
40
40
40
40
ENDCHAR
STARTCHAR dcaron
ENCODING 239
SWIDTH 900 0
DWIDTH 10 0
BBX 8 9 1 0
BITMAP
03
09
0b
78
c8
88
88
88
78
ENDCHAR
STARTCHAR dstroke
ENCODING 240
SWIDTH 720 0
DWIDTH 8 0
BBX 6 8 1 0
BITMAP
1c
08
78
c8
88
88
88
78
ENDCHAR
STARTCHAR nacute
ENCODING 241
SWIDTH 620 0
DWIDTH 7 0
BBX 5 8 1 0
BITMAP
30
00
b0
c8
88
88
88
88
ENDCHAR
STARTCHAR ncaron
ENCODING 242
SWIDTH 620 0
DWIDTH 7 0
BBX 5 8 1 0
BITMAP
78
00
b0
c8
88
88
88
88
ENDCHAR
STARTCHAR oacute
ENCODING 243
SWIDTH 614 0
DWIDTH 7 0
BBX 6 7 0 0
BITMAP
20
78
cc
84
84
cc
78
ENDCHAR
STARTCHAR ocircumflex
ENCODING 244
SWIDTH 614 0
DWIDTH 7 0
BBX 6 7 0 0
BITMAP
30
78
cc
84
84
cc
78
ENDCHAR
STARTCHAR odoubleacute
ENCODING 245
SWIDTH 614 0
DWIDTH 7 0
BBX 6 8 0 0
BITMAP
70
00
78
cc
84
84
cc
78
ENDCHAR
STARTCHAR odiaeresis
ENCODING 246
SWIDTH 614 0
DWIDTH 7 0
BBX 6 7 0 0
BITMAP
50
78
cc
84
84
cc
78
ENDCHAR
STARTCHAR division
ENCODING 247
SWIDTH 633 0
DWIDTH 7 0
BBX 7 6 0 0
BITMAP
10
00
00
fe
00
10
ENDCHAR
STARTCHAR rcaron
ENCODING 248
SWIDTH 409 0
DWIDTH 5 0
BBX 4 8 1 0
BITMAP
f0
00
a0
c0
80
80
80
80
ENDCHAR
STARTCHAR uring
ENCODING 249
SWIDTH 620 0
DWIDTH 7 0
BBX 5 10 1 0
BITMAP
30
48
30
00
88
88
88
88
98
68
ENDCHAR
STARTCHAR uacute
ENCODING 250
SWIDTH 620 0
DWIDTH 7 0
BBX 5 7 1 0
BITMAP
30
88
88
88
88
98
68
ENDCHAR
STARTCHAR udoubleacute
ENCODING 251
SWIDTH 620 0
DWIDTH 7 0
BBX 5 8 1 0
BITMAP
70
00
88
88
88
88
98
68
ENDCHAR
STARTCHAR udiaeresis
ENCODING 252
SWIDTH 620 0
DWIDTH 7 0
BBX 5 7 1 0
BITMAP
50
88
88
88
88
98
68
ENDCHAR
STARTCHAR yacute
ENCODING 253
SWIDTH 568 0
DWIDTH 6 0
BBX 6 9 0 -2
BITMAP
30
84
48
48
38
30
30
20
60
ENDCHAR
STARTCHAR tcedilla
ENCODING 254
SWIDTH 374 0
DWIDTH 4 0
BBX 4 10 0 -3
BITMAP
40
f0
40
40
40
40
30
40
20
60
ENDCHAR
STARTCHAR abovedot
ENCODING 255
SWIDTH 614 0
DWIDTH 7 0
BBX 1 1 3 7
BITMAP
80
ENDCHAR
ENDFONT
